<?xml version="1.0" standalone="no"?>
<!DOCTYPE svg PUBLIC "-//W3C//DTD SVG 20010904//EN"
 "http://www.w3.org/TR/2001/REC-SVG-20010904/DTD/svg10.dtd">
<svg version="1.0" xmlns="http://www.w3.org/2000/svg"
 width="500.000000pt" height="500.000000pt" viewBox="0 0 500.000000 500.000000"
 preserveAspectRatio="xMidYMid meet">

<g transform="translate(0.000000,500.000000) scale(0.100000,-0.100000)"
fill="#000000" stroke="none">
<path d="M3770 3618 c-198 -20 -379 -186 -421 -386 -16 -78 -6 -191 26 -287
32 -100 128 -299 250 -520 51 -93 106 -196 121 -227 27 -56 27 -57 10 -101
-32 -83 -121 -221 -186 -287 -88 -90 -156 -122 -266 -128 -138 -7 -249 35
-540 203 -343 199 -477 255 -635 263 -111 5 -177 -7 -259 -49 -133 -67 -250
-199 -363 -409 -26 -48 -63 -105 -83 -128 -44 -52 -114 -95 -149 -90 -24 3
-22 8 91 213 262 472 328 657 295 827 -41 208 -210 367 -423 399 -146 21 -289
-26 -404 -133 -146 -137 -189 -331 -119 -543 32 -99 137 -318 255 -530 48 -88
105 -195 126 -237 33 -67 44 -80 76 -93 137 -54 311 42 407 225 101 193 228
336 347 392 57 26 84 33 156 36 169 8 277 -32 627 -235 257 -149 382 -202 524
-222 269 -38 488 146 650 545 13 34 75 153 137 265 267 482 334 669 301 841
-41 209 -214 372 -421 397 -30 3 -89 3 -130 -1z m241 -149 c75 -40 132 -102
172 -187 59 -124 41 -249 -69 -482 -80 -168 -276 -522 -285 -513 -16 17 -216
385 -265 488 -90 191 -107 247 -108 355 -1 86 2 101 30 160 94 199 334 281
525 179z m-2747 -674 c78 -21 136 -56 195 -121 65 -71 94 -145 95 -244 1 -95
-25 -182 -105 -349 -82 -173 -271 -513 -280 -504 -18 19 -208 370 -265 488
-95 201 -108 243 -109 360 0 91 3 106 29 160 52 106 148 183 261 211 68 17
111 17 179 -1z"/>
<path d="M3734 3394 c-93 -33 -170 -135 -181 -239 -12 -113 57 -232 162 -281
64 -30 170 -33 231 -5 188 85 229 337 77 471 -76 66 -192 88 -289 54z m159
-98 c44 -18 94 -77 107 -126 28 -105 -56 -210 -170 -210 -140 0 -223 184 -133
291 47 56 127 74 196 45z"/>
<path d="M1077 2686 c-200 -72 -249 -340 -86 -479 138 -118 350 -76 433 87 76
148 2 338 -152 390 -55 19 -144 20 -195 2z m171 -110 c73 -38 114 -125 93
-196 -24 -80 -87 -130 -166 -130 -91 0 -160 60 -172 149 -6 46 17 118 45 144
51 46 145 62 200 33z"/>
</g>
</svg>
